<svg width="416" height="475" viewBox="0 0 416 475" fill="none" xmlns="http://www.w3.org/2000/svg">
<path d="M135.027 91H281.473L332.5 312H84L135.027 91Z" fill="white"/>
<path d="M208 123L388.133 387H27.8667L208 123Z" fill="white"/>
<path d="M208 131L382.071 383H33.9289L208 131Z" fill="black"/>
<path d="M136 96H279.5L329.5 312H86L136 96Z" fill="black"/>
<path d="M71 75C71 72.2386 73.2386 70 76 70H341C343.761 70 346 72.2386 346 75V128C346 130.761 343.761 133 341 133H76C73.2386 133 71 130.761 71 128V75Z" fill="white"/>
<path d="M71 5C71 2.23858 73.2386 0 76 0H127C129.761 0 132 2.23858 132 5V80C132 82.7614 129.761 85 127 85H76C73.2386 85 71 82.7614 71 80V5Z" fill="white"/>
<path d="M178 5C178 2.23858 180.239 0 183 0H234C236.761 0 239 2.23858 239 5V80C239 82.7614 236.761 85 234 85H183C180.239 85 178 82.7614 178 80V5Z" fill="white"/>
<path d="M285 5C285 2.23858 287.239 0 290 0H341C343.761 0 346 2.23858 346 5V80C346 82.7614 343.761 85 341 85H290C287.239 85 285 82.7614 285 80V5Z" fill="white"/>
<path d="M73 78C73 75.2386 75.2386 73 78 73H338C340.761 73 343 75.2386 343 78V126C343 128.761 340.761 131 338 131H78C75.2386 131 73 128.761 73 126V78Z" fill="black"/>
<path d="M180 8C180 5.23858 182.239 3 185 3H231C233.761 3 236 5.23858 236 8V78C236 80.7614 233.761 83 231 83H185C182.239 83 180 80.7614 180 78V8Z" fill="black"/>
<path d="M73 8C73 5.23858 75.2386 3 78 3H124C126.761 3 129 5.23858 129 8V78C129 80.7614 126.761 83 124 83H78C75.2386 83 73 80.7614 73 78V8Z" fill="black"/>
<path d="M287 8C287 5.23858 289.239 3 292 3H338C340.761 3 343 5.23858 343 8V78C343 80.7614 340.761 83 338 83H292C289.239 83 287 80.7614 287 78V8Z" fill="black"/>
</svg>
