<svg width="416" height="511" viewBox="0 0 416 511" fill="none" xmlns="http://www.w3.org/2000/svg">
<path d="M208 159L388.133 423H27.8667L208 159Z" fill="white"/>
<path d="M208 167L382.071 419H33.9289L208 167Z" fill="black"/>
<g filter="url(#filter0_d_2_43)">
<path d="M296.388 78.6116C318.669 100.892 331.713 130.765 332.91 162.251C334.107 193.738 323.369 224.515 302.844 248.422C282.32 272.33 253.524 287.604 222.219 291.189C190.914 294.773 159.411 286.402 134.014 267.753C108.617 249.103 91.2002 221.549 85.2494 190.607C79.2987 159.665 85.2531 127.617 101.921 100.877C118.589 74.1376 144.74 54.6791 175.141 46.3962C205.542 38.1133 237.95 41.6172 265.878 56.2066L208 167L296.388 78.6116Z" fill="black"/>
</g>
<g filter="url(#filter1_d_2_43)">
<circle cx="208.25" cy="36.25" r="31.25" fill="black"/>
</g>
<defs>
<filter id="filter0_d_2_43" x="77.9996" y="36.9998" width="260" height="260.001" filterUnits="userSpaceOnUse" color-interpolation-filters="sRGB">
<feFlood flood-opacity="0" result="BackgroundImageFix"/>
<feColorMatrix in="SourceAlpha" type="matrix" values="0 0 0 0 0 0 0 0 0 0 0 0 0 0 0 0 0 0 127 0" result="hardAlpha"/>
<feMorphology radius="5" operator="dilate" in="SourceAlpha" result="effect1_dropShadow_2_43"/>
<feOffset/>
<feComposite in2="hardAlpha" operator="out"/>
<feColorMatrix type="matrix" values="0 0 0 0 1 0 0 0 0 1 0 0 0 0 1 0 0 0 1 0"/>
<feBlend mode="normal" in2="BackgroundImageFix" result="effect1_dropShadow_2_43"/>
<feBlend mode="normal" in="SourceGraphic" in2="effect1_dropShadow_2_43" result="shape"/>
</filter>
<filter id="filter1_d_2_43" x="172" y="0" width="72.5" height="72.5" filterUnits="userSpaceOnUse" color-interpolation-filters="sRGB">
<feFlood flood-opacity="0" result="BackgroundImageFix"/>
<feColorMatrix in="SourceAlpha" type="matrix" values="0 0 0 0 0 0 0 0 0 0 0 0 0 0 0 0 0 0 127 0" result="hardAlpha"/>
<feMorphology radius="5" operator="dilate" in="SourceAlpha" result="effect1_dropShadow_2_43"/>
<feOffset/>
<feComposite in2="hardAlpha" operator="out"/>
<feColorMatrix type="matrix" values="0 0 0 0 1 0 0 0 0 1 0 0 0 0 1 0 0 0 1 0"/>
<feBlend mode="normal" in2="BackgroundImageFix" result="effect1_dropShadow_2_43"/>
<feBlend mode="normal" in="SourceGraphic" in2="effect1_dropShadow_2_43" result="shape"/>
</filter>
</defs>
</svg>
