<svg width="416" height="511" viewBox="0 0 416 511" fill="none" xmlns="http://www.w3.org/2000/svg">
<path d="M208 159L388.133 423H27.8667L208 159Z" fill="black"/>
<path d="M208 167L382.071 419H33.9289L208 167Z" fill="white"/>
<g filter="url(#filter0_d_2_43)">
<path d="M333 167C333 198.509 321.1 228.856 299.682 251.967C278.265 275.077 248.909 289.247 217.491 291.639C186.073 294.032 154.91 284.47 130.24 264.869C105.57 245.268 89.2121 217.073 84.4412 185.927C79.6703 154.781 86.8379 122.982 104.509 96.8951C122.181 70.8079 149.053 52.3569 179.746 45.235C210.44 38.113 242.691 42.8456 270.045 58.4855C297.399 74.1253 317.837 99.5186 327.268 129.583L208 167H333Z" fill="white"/>
</g>
<g filter="url(#filter1_d_2_43)">
<path d="M296.388 78.6117C318.669 100.892 331.713 130.765 332.91 162.251C334.107 193.738 323.369 224.515 302.844 248.422C282.32 272.33 253.524 287.604 222.219 291.189C190.914 294.773 159.411 286.403 134.014 267.753C108.617 249.103 91.2002 221.549 85.2494 190.607C79.2987 159.665 85.2531 127.617 101.921 100.877C118.589 74.1377 144.74 54.6792 175.141 46.3963C205.542 38.1134 237.95 41.6173 265.878 56.2067L208 167L296.388 78.6117Z" fill="white"/>
</g>
<g filter="url(#filter2_d_2_43)">
<circle cx="208.25" cy="36.25" r="31.25" fill="white"/>
</g>
<g filter="url(#filter3_d_2_43)">
<path d="M208 167L268 51.5L300 75L208 167Z" fill="black"/>
</g>
<defs>
<filter id="filter0_d_2_43" x="77.9996" y="36.9998" width="260" height="260.001" filterUnits="userSpaceOnUse" color-interpolation-filters="sRGB">
<feFlood flood-opacity="0" result="BackgroundImageFix"/>
<feColorMatrix in="SourceAlpha" type="matrix" values="0 0 0 0 0 0 0 0 0 0 0 0 0 0 0 0 0 0 127 0" result="hardAlpha"/>
<feMorphology radius="5" operator="dilate" in="SourceAlpha" result="effect1_dropShadow_2_43"/>
<feOffset/>
<feComposite in2="hardAlpha" operator="out"/>
<feColorMatrix type="matrix" values="0 0 0 0 0 0 0 0 0 0 0 0 0 0 0 0 0 0 1 0"/>
<feBlend mode="normal" in2="BackgroundImageFix" result="effect1_dropShadow_2_43"/>
<feBlend mode="normal" in="SourceGraphic" in2="effect1_dropShadow_2_43" result="shape"/>
</filter>
<filter id="filter1_d_2_43" x="77.9996" y="36.9999" width="260" height="260.001" filterUnits="userSpaceOnUse" color-interpolation-filters="sRGB">
<feFlood flood-opacity="0" result="BackgroundImageFix"/>
<feColorMatrix in="SourceAlpha" type="matrix" values="0 0 0 0 0 0 0 0 0 0 0 0 0 0 0 0 0 0 127 0" result="hardAlpha"/>
<feMorphology radius="5" operator="dilate" in="SourceAlpha" result="effect1_dropShadow_2_43"/>
<feOffset/>
<feComposite in2="hardAlpha" operator="out"/>
<feColorMatrix type="matrix" values="0 0 0 0 0 0 0 0 0 0 0 0 0 0 0 0 0 0 1 0"/>
<feBlend mode="normal" in2="BackgroundImageFix" result="effect1_dropShadow_2_43"/>
<feBlend mode="normal" in="SourceGraphic" in2="effect1_dropShadow_2_43" result="shape"/>
</filter>
<filter id="filter2_d_2_43" x="172" y="0" width="72.5" height="72.5" filterUnits="userSpaceOnUse" color-interpolation-filters="sRGB">
<feFlood flood-opacity="0" result="BackgroundImageFix"/>
<feColorMatrix in="SourceAlpha" type="matrix" values="0 0 0 0 0 0 0 0 0 0 0 0 0 0 0 0 0 0 127 0" result="hardAlpha"/>
<feMorphology radius="5" operator="dilate" in="SourceAlpha" result="effect1_dropShadow_2_43"/>
<feOffset/>
<feComposite in2="hardAlpha" operator="out"/>
<feColorMatrix type="matrix" values="0 0 0 0 0 0 0 0 0 0 0 0 0 0 0 0 0 0 1 0"/>
<feBlend mode="normal" in2="BackgroundImageFix" result="effect1_dropShadow_2_43"/>
<feBlend mode="normal" in="SourceGraphic" in2="effect1_dropShadow_2_43" result="shape"/>
</filter>
<filter id="filter3_d_2_43" x="204" y="51.5" width="100" height="123.5" filterUnits="userSpaceOnUse" color-interpolation-filters="sRGB">
<feFlood flood-opacity="0" result="BackgroundImageFix"/>
<feColorMatrix in="SourceAlpha" type="matrix" values="0 0 0 0 0 0 0 0 0 0 0 0 0 0 0 0 0 0 127 0" result="hardAlpha"/>
<feOffset dy="4"/>
<feGaussianBlur stdDeviation="2"/>
<feComposite in2="hardAlpha" operator="out"/>
<feColorMatrix type="matrix" values="0 0 0 0 0 0 0 0 0 0 0 0 0 0 0 0 0 0 0.25 0"/>
<feBlend mode="normal" in2="BackgroundImageFix" result="effect1_dropShadow_2_43"/>
<feBlend mode="normal" in="SourceGraphic" in2="effect1_dropShadow_2_43" result="shape"/>
</filter>
</defs>
</svg>
