<svg width="416" height="518" viewBox="0 0 416 518" fill="none" xmlns="http://www.w3.org/2000/svg">
<path d="M208 166L388.133 430H27.8667L208 166Z" fill="white"/>
<g filter="url(#filter0_d_4_20)">
<path d="M358.186 131.293C369.687 143.249 354.842 163.816 339.142 158.458C103.117 77.9122 417.741 400.288 290.445 373.5C156.342 373.5 150.641 407.507 107.945 321.375C133.233 223.133 132.491 72.716 221 41C276.807 50.9323 295.713 66.3454 358.186 131.293Z" fill="white"/>
</g>
<path d="M208 174L382.071 426H33.9289L208 174Z" fill="black"/>
<path d="M222.467 15.3182C224.111 12.716 228.137 14.0054 227.991 17.0872L224.935 81.3598C224.838 83.3845 222.811 84.7273 220.913 84.0237L190.487 72.7451C188.694 72.0804 187.964 69.9273 188.984 68.3122L222.467 15.3182Z" fill="white"/>
<g filter="url(#filter1_d_4_20)">
<path d="M353.871 129.223C365.36 141.186 350.51 161.823 334.787 156.539C107.716 80.2334 408.491 393.92 284.853 367.831C154.264 367.831 153.092 400.312 111.515 316.21C136.14 220.282 135.418 73.4099 221.608 42.4412C275.554 52.0685 294.092 66.9695 353.871 129.223Z" fill="black"/>
</g>
<path d="M221.546 18.3299C223.182 15.6642 227.292 16.9917 227.088 20.1197L223.296 78C223.165 80 221.155 81.3058 219.278 80.6101L193.426 71.0272C191.648 70.3681 190.912 68.2421 191.903 66.6274L221.546 18.3299Z" fill="black"/>
<path d="M293.522 98.3363C295.88 100.71 293.069 104.534 290.022 103.097L264.479 91.0607C262.787 90.2631 262.248 88.1551 263.352 86.6527L269.128 78.797C270.232 77.2945 272.445 77.1257 273.755 78.4439L293.522 98.3363Z" fill="white"/>
<path d="M139.851 66.2024C140.866 63.3776 143.096 61.1515 145.927 60.138L188.424 44.9226C193.203 43.2114 197.184 48.8515 193.967 52.7755L164.73 88.4361C163.994 89.3341 163.419 90.3522 163.032 91.4452L142.693 148.823L120.261 255.392C119.478 259.111 116.651 262.074 112.967 263.038L90.8152 268.836C83.3476 270.79 76.5957 263.948 78.6693 256.528L103.828 166.501L139.851 66.2024Z" fill="white"/>
<path d="M140.991 68.248C141.967 65.49 144.101 63.2911 146.833 62.2304L185.312 47.2905C190.057 45.448 194.188 51.0117 191.046 55.0139L163.799 89.7201C163.117 90.5897 162.582 91.5655 162.218 92.6078L142.528 148.999L120.243 253.513C119.471 257.134 116.758 260.041 113.191 261.068L94.167 266.546C86.6479 268.711 79.6875 261.836 81.782 254.313L106.151 166.782L140.991 68.248Z" fill="black"/>
<defs>
<filter id="filter0_d_4_20" x="107.945" y="41" width="254.326" height="339.121" filterUnits="userSpaceOnUse" color-interpolation-filters="sRGB">
<feFlood flood-opacity="0" result="BackgroundImageFix"/>
<feColorMatrix in="SourceAlpha" type="matrix" values="0 0 0 0 0 0 0 0 0 0 0 0 0 0 0 0 0 0 127 0" result="hardAlpha"/>
<feOffset/>
<feComposite in2="hardAlpha" operator="out"/>
<feColorMatrix type="matrix" values="0 0 0 0 1 0 0 0 0 1 0 0 0 0 1 0 0 0 1 0"/>
<feBlend mode="normal" in2="BackgroundImageFix" result="effect1_dropShadow_4_20"/>
<feBlend mode="normal" in="SourceGraphic" in2="effect1_dropShadow_4_20" result="shape"/>
</filter>
<filter id="filter1_d_4_20" x="111.515" y="42.4412" width="246.432" height="331.559" filterUnits="userSpaceOnUse" color-interpolation-filters="sRGB">
<feFlood flood-opacity="0" result="BackgroundImageFix"/>
<feColorMatrix in="SourceAlpha" type="matrix" values="0 0 0 0 0 0 0 0 0 0 0 0 0 0 0 0 0 0 127 0" result="hardAlpha"/>
<feOffset/>
<feComposite in2="hardAlpha" operator="out"/>
<feColorMatrix type="matrix" values="0 0 0 0 1 0 0 0 0 1 0 0 0 0 1 0 0 0 1 0"/>
<feBlend mode="normal" in2="BackgroundImageFix" result="effect1_dropShadow_4_20"/>
<feBlend mode="normal" in="SourceGraphic" in2="effect1_dropShadow_4_20" result="shape"/>
</filter>
</defs>
</svg>
